<svg width="170" height="48" viewBox="0 0 170 48" fill="none" xmlns="http://www.w3.org/2000/svg">
<path d="M65.5312 1.3125L54.2812 47H39.6875L35.3125 27.0938C35.2292 26.7188 35.0938 26.0833 34.9062 25.1875C34.7396 24.2917 34.5417 23.2708 34.3125 22.125C34.1042 20.9792 33.9062 19.8542 33.7188 18.75C33.5521 17.625 33.4271 16.6771 33.3438 15.9062C33.2604 16.6771 33.125 17.625 32.9375 18.75C32.75 19.8542 32.5417 20.9792 32.3125 22.125C32.1042 23.2708 31.8958 24.2917 31.6875 25.1875C31.5 26.0833 31.3646 26.7188 31.2812 27.0938L26.875 47H12.2812L0.96875 1.3125H12.875L17.8438 24.2188C17.9688 24.7812 18.1354 25.5833 18.3438 26.625C18.5729 27.6458 18.8021 28.7708 19.0312 30C19.2812 31.2083 19.5104 32.375 19.7188 33.5C19.9271 34.625 20.0729 35.5625 20.1562 36.3125C20.3229 35.0208 20.5417 33.5521 20.8125 31.9062C21.1042 30.2604 21.4167 28.5938 21.75 26.9062C22.1042 25.1979 22.4375 23.6146 22.75 22.1562C23.0625 20.6979 23.3333 19.5104 23.5625 18.5938L27.5938 1.3125H39.0312L42.9375 18.5938C43.1458 19.4896 43.4062 20.6771 43.7188 22.1562C44.0521 23.6146 44.3854 25.1979 44.7188 26.9062C45.0729 28.6146 45.3958 30.3021 45.6875 31.9688C45.9792 33.6146 46.1979 35.0625 46.3438 36.3125C46.4688 35.2708 46.6771 33.9583 46.9688 32.375C47.2604 30.7708 47.5521 29.2188 47.8438 27.7188C48.1562 26.1979 48.3958 25.0521 48.5625 24.2812L53.625 1.3125H65.5312ZM110.469 47H96.5312L87.5 29.5312L83.8438 31.7188V47H71.4375V1.3125H83.8438V21.1562C84.3646 20.1562 84.9583 19.1562 85.625 18.1562C86.3125 17.1562 86.9792 16.2083 87.625 15.3125L97.2188 1.3125H110.719L96.3125 21.7812L110.469 47Z" fill="#3730A3"/>
<path d="M135.781 10.7812C134.323 10.7812 133.021 11.0938 131.875 11.7188C130.729 12.3229 129.75 13.2083 128.938 14.375C128.125 15.5417 127.5 16.9688 127.062 18.6562C126.646 20.3229 126.438 22.2188 126.438 24.3438C126.438 27.2188 126.802 29.6354 127.531 31.5938C128.26 33.5521 129.365 35.0312 130.844 36.0312C132.344 37.0312 134.219 37.5312 136.469 37.5312C138.51 37.5312 140.469 37.25 142.344 36.6875C144.24 36.125 146.146 35.4479 148.062 34.6562V45.0938C146.042 45.9896 143.969 46.6354 141.844 47.0312C139.74 47.4271 137.5 47.625 135.125 47.625C130.167 47.625 126.104 46.6458 122.938 44.6875C119.792 42.7083 117.469 39.9688 115.969 36.4688C114.49 32.9688 113.75 28.9062 113.75 24.2812C113.75 20.8229 114.229 17.6562 115.188 14.7812C116.167 11.9062 117.594 9.41667 119.469 7.3125C121.344 5.1875 123.656 3.55208 126.406 2.40625C129.177 1.23958 132.344 0.65625 135.906 0.65625C138.115 0.65625 140.438 0.916667 142.875 1.4375C145.333 1.9375 147.729 2.75 150.062 3.875L146.281 13.5938C144.615 12.8021 142.927 12.1354 141.219 11.5938C139.51 11.0521 137.698 10.7812 135.781 10.7812ZM157 47V1.3125H169.406V47H157Z" fill="#A5B4FC"/>
</svg>
